<svg width="56" height="56" viewBox="0 0 56 56" fill="none" xmlns="http://www.w3.org/2000/svg">
<rect width="56" height="56" rx="15" fill="#279BE9"/>
<path d="M14 10C11.8139 10 10 11.8139 10 14V18C10 20.1861 11.8139 22 14 22H18C20.1861 22 22 20.1861 22 18V14C22 11.8139 20.1861 10 18 10H14ZM38 10C35.8139 10 34 11.8139 34 14V18C34 20.1861 35.8139 22 38 22H42C44.1861 22 46 20.1861 46 18V14C46 11.8139 44.1861 10 42 10H38ZM14 14H18V18H14V14ZM26 14V18H30V14H26ZM38 14H42V18H38V14ZM14 26V30H18V26H14ZM38 26V30H42V26H38ZM14 34C11.8139 34 10 35.8139 10 38V42C10 44.1861 11.8139 46 14 46H18C20.1861 46 22 44.1861 22 42V38C22 35.8139 20.1861 34 18 34H14ZM38 34C35.8139 34 34 35.8139 34 38V42C34 44.1861 35.8139 46 38 46H42C44.1861 46 46 44.1861 46 42V38C46 35.8139 44.1861 34 42 34H38ZM14 38H18V42H14V38ZM26 38V42H30V38H26ZM38 38H42V42H38V38Z" fill="white"/>
</svg>
