<svg width="336" height="109" viewBox="0 0 336 109" fill="none" xmlns="http://www.w3.org/2000/svg">
<g opacity="0.2">
<mask id="mask0_97_578" style="mask-type:luminance" maskUnits="userSpaceOnUse" x="0" y="0" width="336" height="109">
<path d="M0 0H335.385V109H0V0Z" fill="white"/>
</mask>
<g mask="url(#mask0_97_578)">
<path d="M125.897 28.7549L84.3365 3.79592L42.7795 28.7549L0.298828 3.29204L1.97844 0.503883L42.7224 24.9624L84.3129 0L125.873 24.9624L167.481 0L209.041 24.9624L250.655 0L292.215 24.9624L332.959 0.503883L334.645 3.29204L292.249 28.7549L250.688 3.79592L209.128 28.7549L167.571 3.79592L125.897 28.7549ZM250.655 43.9353L292.215 68.8943L334.656 43.4314L332.999 40.613L292.255 65.0681L250.699 40.1091L209.138 65.0681L167.578 40.1091L126.021 65.0681L84.4607 40.1091L42.9005 65.0681L1.97844 40.613L0.298828 43.4314L42.7224 68.8943L84.2794 43.9353L125.84 68.8943L167.4 43.9353L208.957 68.8943L250.655 43.9353ZM250.655 84.0746L292.215 109.034L334.656 83.5707L332.969 80.7859L292.222 105.241L250.665 80.282L209.105 105.241L167.544 80.282L125.987 105.241L84.4272 80.282L42.8669 105.241L2.12289 80.7859L0.298828 83.5707L42.7224 109.034L84.2794 84.0746L125.84 109.034L167.4 84.0746L208.957 109.034L250.655 84.0746Z" fill="#279BE9"/>
</g>
</g>
</svg>
