<svg width="36" height="38" viewBox="0 0 36 38" fill="none" xmlns="http://www.w3.org/2000/svg">
<path d="M4 0C1.8 0 0 1.8 0 4V10C0 12.2 1.8 14 4 14V18L8 14H12C14.2 14 16 12.2 16 10V4C16 1.8 14.2 0 12 0H4ZM24 0C21.8 0 20 1.8 20 4V10C20 12.2 21.8 14 24 14H28L32 18V14C34.2 14 36 12.2 36 10V4C36 1.8 34.2 0 32 0H24ZM4 4H12V10H8H6.34375H4V4ZM24 4H32V10H28H24V4ZM8 20C6.93913 20 5.92172 20.4214 5.17157 21.1716C4.42143 21.9217 4 22.9391 4 24C4 25.0609 4.42143 26.0783 5.17157 26.8284C5.92172 27.5786 6.93913 28 8 28C9.06087 28 10.0783 27.5786 10.8284 26.8284C11.5786 26.0783 12 25.0609 12 24C12 22.9391 11.5786 21.9217 10.8284 21.1716C10.0783 20.4214 9.06087 20 8 20ZM28 20C26.9391 20 25.9217 20.4214 25.1716 21.1716C24.4214 21.9217 24 22.9391 24 24C24 25.0609 24.4214 26.0783 25.1716 26.8284C25.9217 27.5786 26.9391 28 28 28C29.0609 28 30.0783 27.5786 30.8284 26.8284C31.5786 26.0783 32 25.0609 32 24C32 22.9391 31.5786 21.9217 30.8284 21.1716C30.0783 20.4214 29.0609 20 28 20ZM3.99609 24.0039C3.99609 24.0039 2.102 23.898 1 25C-0.102 26.102 0.00390625 27.9961 0.00390625 27.9961C0.00390625 27.9961 1.89409 28.0981 2.99609 26.9961C4.10009 25.8941 3.99609 24.0039 3.99609 24.0039ZM8 30C3.63 30 0 31.8176 0 34.4336V38H16V34.4336C16 31.8176 12.37 30 8 30ZM28 30C23.63 30 20 31.8176 20 34.4336V38H36V34.4336C36 31.8176 32.37 30 28 30Z" fill="#279BE9"/>
</svg>
