<svg width="56" height="56" viewBox="0 0 56 56" fill="none" xmlns="http://www.w3.org/2000/svg">
<rect width="56" height="56" rx="15" fill="#279BE9"/>
<path d="M28 8C16.954 8 8 16.954 8 28C8 39.046 16.954 48 28 48C39.046 48 48 39.046 48 28C48 16.954 39.046 8 28 8ZM28 12C36.836 12 44 19.164 44 28C44 36.836 36.836 44 28 44C19.164 44 12 36.836 12 28C12 19.164 19.164 12 28 12ZM26.7852 14.2539V18.0469H22.6016V37.9531H26.7852V41.6445H29.3828V37.9414C31.2968 37.9094 32.7806 37.4286 33.8086 36.4766C34.8686 35.4926 35.3984 34.0336 35.3984 32.1016C35.3984 31.6196 35.35 31.1455 35.25 30.6875C35.148 30.2275 34.9875 29.7982 34.7695 29.4062C34.5515 29.0143 34.2623 28.673 33.9062 28.375C33.5502 28.081 33.1174 27.8569 32.6094 27.7109C33.0474 27.5189 33.4224 27.2765 33.7344 26.9805C34.0504 26.6865 34.3115 26.3543 34.5195 25.9883C34.7235 25.6223 34.8748 25.2325 34.9688 24.8125C35.0667 24.3925 35.1133 23.9579 35.1133 23.5039C35.1133 22.5739 34.9696 21.766 34.6836 21.082C34.3936 20.398 33.9757 19.8329 33.4297 19.3789C32.8837 18.9289 32.2177 18.593 31.4297 18.375C30.8157 18.205 30.1188 18.12 29.3828 18.082V14.2539H26.7852ZM26.6211 21.3945H28.7539C29.5739 21.3945 30.1653 21.5924 30.5312 21.9844C30.8972 22.3764 31.0781 23.0238 31.0781 23.9258C31.0781 24.7278 30.8821 25.336 30.4961 25.75C30.1081 26.166 29.5149 26.375 28.7109 26.375H26.6211V21.3945ZM26.6211 29.3008H29.3281C30.0761 29.3008 30.6099 29.5471 30.9219 30.0391C31.2379 30.5311 31.3945 31.1989 31.3945 32.0469C31.3925 32.4189 31.3515 32.7603 31.2695 33.0703C31.1875 33.3803 31.0588 33.6527 30.8828 33.8867C30.7028 34.1167 30.4772 34.2978 30.1992 34.4258C29.9192 34.5518 29.5834 34.6172 29.1914 34.6172H26.6211V29.3008Z" fill="white"/>
</svg>
