<svg width="70" height="70" viewBox="0 0 98 96" fill="none" xmlns="http://www.w3.org/2000/svg">
<path d="M80.79 47.0514C80.387 47.0173 79.971 47.1374 79.6382 47.4184L76.2241 50.3001L73.8103 52.3376L54.533 68.6093L54.0007 74.9051L60.2964 75.4375L85.4015 54.2465C86.069 53.6832 86.1532 52.6868 85.5897 52.0209L81.8638 47.6066C81.5828 47.2737 81.1929 47.0854 80.79 47.0514ZM80.4687 50.851L82.1572 52.8514L79.9501 54.7144L78.2616 52.714L80.4687 50.851ZM75.8477 54.7515L77.5362 56.7519L59.2591 72.1794L57.4147 72.0234L57.5707 70.1789L75.8477 54.7515Z" fill="#279BE9"/>
<path fillRule="evenodd" clipRule="evenodd" d="M15.5285 59.9477L39.1475 12.0429L72.4064 0.176222L83.9135 32.4273L80.1093 40.1431C77.2023 39.7283 74.196 39.7937 71.2053 40.3939L75.2993 32.0903L67.4786 10.171L44.8743 18.2362L22.699 63.2128L51.8962 76.5079C53.0583 79.3262 54.6591 81.8447 56.5901 84.0121C56.3127 84.1474 56.026 84.2681 55.7309 84.3734C53.7191 85.0912 51.5566 85.0065 49.6398 84.1336L19.2148 70.2795C17.298 69.4067 15.8602 67.852 15.1642 65.9012C14.4681 63.9504 14.5971 61.8367 15.5285 59.9477ZM57.6396 47.6483C54.3011 50.9932 51.9265 55.1702 50.7409 59.7045C48.0255 60.547 45.5257 59.8544 44.8506 59.6447L42.7261 63.966L39.4182 62.4597L41.5452 58.1455C41.5294 58.1355 41.5121 58.1247 41.4933 58.1129C40.3732 57.4103 34.1163 53.486 38.6696 44.2508L44.8992 47.0874C42.2548 52.451 44.9871 53.6463 45.5696 53.9011C45.5895 53.9099 45.6069 53.9175 45.6215 53.9241C46.1032 54.1435 48.5261 55.1416 50.3124 51.5185C51.9177 48.2627 50.1774 46.0702 48.2617 43.6566C45.9166 40.702 43.3084 37.4161 46.2518 31.4428C49.9181 24.0067 56.7441 25.6978 57.93 26.0695L60.2206 21.4235L63.541 22.9414L61.2118 27.6655C62.168 28.3457 67.4311 32.368 63.2227 40.9036L56.9931 38.0669C59.1947 33.6079 57.6215 32.0305 56.8153 31.6634C56.3741 31.4625 54.2693 30.647 52.467 34.3088C51.0839 37.114 52.6968 39.3047 54.5058 41.7617C55.7782 43.49 57.1477 45.35 57.6396 47.6483Z" fill="#279BE9"/>
</svg>
