<svg width="39" height="40" viewBox="0 0 39 40" fill="none" xmlns="http://www.w3.org/2000/svg">
<path d="M18.1914 0C9.43913 0 2.29711 7.09049 2.19922 15.8203L0 40H18.1914H24.1914V36H18.1914C11.5403 36 6.19141 30.6511 6.19141 24V22C6.19141 19.7667 7.95807 18 10.1914 18H26.1914C28.4247 18 30.1914 19.7667 30.1914 22V28H22.0156C21.8091 27.4158 21.4267 26.9098 20.921 26.5517C20.4153 26.1936 19.8111 26.0009 19.1914 26C18.3958 26 17.6327 26.3161 17.0701 26.8787C16.5075 27.4413 16.1914 28.2044 16.1914 29C16.1924 29.7578 16.4802 30.4871 16.9968 31.0414C17.5135 31.5957 18.2207 31.934 18.9766 31.9883C19.0479 31.996 19.1196 32 19.1914 32H32.1914H34.1914C36.3914 32 38.1914 30.2 38.1914 28V24C38.1914 21.8 36.3914 20 34.1914 20V16C34.1914 7.18712 27.0043 0 18.1914 0ZM18.1914 4C24.5364 4 29.6829 8.87136 30.1445 15.0938C28.9719 14.4168 27.6335 14 26.1914 14H10.1914C8.74934 14 7.41087 14.4168 6.23828 15.0938C6.69989 8.87136 11.8465 4 18.1914 4Z" fill="#279BE9"/>
</svg>
