<svg width="70" height="70" viewBox="0 0 80 80" fill="none" xmlns="http://www.w3.org/2000/svg">
<path d="M24 0L0 24L20 44L4 60V76H20L36 60L56 80L80 56L60 36L78.8281 17.1719C80.3921 15.6079 80.3921 13.0756 78.8281 11.5156L68.4844 1.17188C67.7044 0.391875 66.6803 0 65.6562 0C64.6322 0 63.6081 0.391875 62.8281 1.17188L44 20L24 0ZM65.6562 9.65625L70.3438 14.3438L65.1719 19.5156L60.4844 14.8281L65.6562 9.65625ZM24 11.3125L38.3438 25.6562L25.6562 38.3438L11.3125 24L24 11.3125ZM54.8281 20.4844L59.5156 25.1719L16.6875 68H12V63.3125L54.8281 20.4844ZM54.3438 41.6562L68.6875 56L56 68.6875L41.6562 54.3438L54.3438 41.6562Z" fill="#279BE9"/>
</svg>
