<svg width="148" height="128" viewBox="0 0 148 128" fill="none" xmlns="http://www.w3.org/2000/svg">
<path d="M9.81333 0C7.21068 0 4.71462 1.03736 2.87426 2.88387C1.0339 4.73038 0 7.23479 0 9.84615C0 12.4575 1.0339 14.9619 2.87426 16.8084C4.71462 18.6549 7.21068 19.6923 9.81333 19.6923C12.416 19.6923 14.9121 18.6549 16.7524 16.8084C18.5928 14.9619 19.6267 12.4575 19.6267 9.84615C19.6267 7.23479 18.5928 4.73038 16.7524 2.88387C14.9121 1.03736 12.416 0 9.81333 0ZM35.9822 3.28205V16.4103H134.116V3.28205H35.9822ZM9.81333 39.3846C7.21068 39.3846 4.71462 40.422 2.87426 42.2685C1.0339 44.115 0 46.6194 0 49.2308C0 51.8421 1.0339 54.3465 2.87426 56.1931C4.71462 58.0396 7.21068 59.0769 9.81333 59.0769C12.416 59.0769 14.9121 58.0396 16.7524 56.1931C18.5928 54.3465 19.6267 51.8421 19.6267 49.2308C19.6267 46.6194 18.5928 44.115 16.7524 42.2685C14.9121 40.422 12.416 39.3846 9.81333 39.3846ZM35.9822 42.6667V55.7949H75.9256C84.1818 47.6816 95.4772 42.6667 107.947 42.6667H35.9822ZM107.947 55.7949C89.6284 55.7949 75.2356 70.2359 75.2356 88.6154C75.2356 106.995 89.6284 121.436 107.947 121.436C114.489 121.436 121.036 119.462 126.27 116.179L138.038 128L147.2 118.808L135.419 107C138.69 101.749 140.658 95.1795 140.658 88.6154C140.658 70.2359 126.265 55.7949 107.947 55.7949ZM107.947 68.9231C119.068 68.9231 127.573 77.4564 127.573 88.6154C127.573 99.7744 119.068 108.308 107.947 108.308C96.8249 108.308 88.32 99.7744 88.32 88.6154C88.32 77.4564 96.8249 68.9231 107.947 68.9231ZM9.81333 78.7692C7.21068 78.7692 4.71462 79.8066 2.87426 81.6531C1.0339 83.4996 0 86.004 0 88.6154C0 91.2267 1.0339 93.7312 2.87426 95.5777C4.71462 97.4242 7.21068 98.4615 9.81333 98.4615C12.416 98.4615 14.9121 97.4242 16.7524 95.5777C18.5928 93.7312 19.6267 91.2267 19.6267 88.6154C19.6267 86.004 18.5928 83.4996 16.7524 81.6531C14.9121 79.8066 12.416 78.7692 9.81333 78.7692ZM35.9822 82.0513V95.1795H62.675C62.3675 93.033 62.1511 90.8472 62.1511 88.6154C62.1511 86.3836 62.3675 84.1977 62.675 82.0513H35.9822Z" fill="#279BE9"/>
</svg>
