<svg width="56" height="56" viewBox="0 0 56 56" fill="none" xmlns="http://www.w3.org/2000/svg">
<rect width="56" height="56" rx="15" fill="#279BE9"/>
<path d="M14.8203 8L8 8.03516L8.01953 12.0352L12.1602 12.0156L18.75 27.8242L16.3555 31.6562C15.5555 32.9362 15.5141 34.5531 16.2461 35.8711C16.9781 37.1891 18.367 38.0078 19.875 38.0078H43.9922V34.0078H19.875L19.7461 33.7734L22.0977 30.0078H37.0352C38.4892 30.0078 39.8273 29.2172 40.5312 27.9492L47.7383 14.9805C48.0843 14.3605 48.0748 13.6042 47.7148 12.9922C47.3548 12.3822 46.6963 12.0078 45.9883 12.0078H16.4922L14.8203 8ZM18.1562 16.0078H42.5898L37.0352 26.0078H22.3242L18.1562 16.0078ZM19.9922 40.0078C18.9313 40.0078 17.9139 40.4292 17.1638 41.1794C16.4136 41.9295 15.9922 42.9469 15.9922 44.0078C15.9922 45.0687 16.4136 46.0861 17.1638 46.8362C17.9139 47.5864 18.9313 48.0078 19.9922 48.0078C21.0531 48.0078 22.0705 47.5864 22.8206 46.8362C23.5708 46.0861 23.9922 45.0687 23.9922 44.0078C23.9922 42.9469 23.5708 41.9295 22.8206 41.1794C22.0705 40.4292 21.0531 40.0078 19.9922 40.0078ZM39.9922 40.0078C38.9313 40.0078 37.9139 40.4292 37.1638 41.1794C36.4136 41.9295 35.9922 42.9469 35.9922 44.0078C35.9922 45.0687 36.4136 46.0861 37.1638 46.8362C37.9139 47.5864 38.9313 48.0078 39.9922 48.0078C41.0531 48.0078 42.0705 47.5864 42.8206 46.8362C43.5708 46.0861 43.9922 45.0687 43.9922 44.0078C43.9922 42.9469 43.5708 41.9295 42.8206 41.1794C42.0705 40.4292 41.0531 40.0078 39.9922 40.0078Z" fill="white"/>
</svg>
