<svg width="36" height="40" viewBox="0 0 36 40" fill="none" xmlns="http://www.w3.org/2000/svg">
<path d="M16 0C7.164 0 0 7.164 0 16C0 26.008 6 24.8585 6 34.4805V40H24V34H28C30.21 34 32 32.21 32 30V24.043L34.8516 22.8398C35.8936 22.4018 36.2936 21.1298 35.6836 20.1758L31.8945 14.2344C31.0185 6.22838 24.24 0 16 0ZM16 4C22.128 4 27.2539 8.58978 27.9219 14.6758L28.0234 15.6016L28.5273 16.3867L30.9297 20.1523L30.4453 20.3555L28 21.3867V30H20V36H10V34.4805C10 28.4665 7.96603 25.5299 6.33203 23.1719C4.97803 21.2159 4 19.804 4 16C4 9.384 9.384 4 16 4ZM14.793 8C14.533 8 14.315 8.19903 14.293 8.45703L14.1406 10.3242C13.3426 10.5862 12.6237 10.9989 12.0117 11.5469L10.3203 10.7539C10.2503 10.7219 10.1814 10.7031 10.1094 10.7031C9.93538 10.7031 9.76778 10.7931 9.67578 10.9531L8.46875 13.0469C8.33875 13.2729 8.40319 13.559 8.61719 13.707L10.1328 14.7578C10.0488 15.1598 10 15.574 10 16C10 16.426 10.0488 16.8402 10.1328 17.2422L8.61719 18.293C8.40319 18.441 8.33875 18.7291 8.46875 18.9531L9.67578 21.043C9.76778 21.203 9.93538 21.293 10.1094 21.293C10.1814 21.293 10.2523 21.2781 10.3203 21.2461L12.0078 20.4492C12.6178 20.9972 13.3387 21.4138 14.1367 21.6758L14.293 23.5391C14.315 23.7991 14.533 24 14.793 24H17.207C17.467 24 17.685 23.801 17.707 23.543L17.8633 21.6758C18.6613 21.4138 19.3802 21.0011 19.9922 20.4531L21.6797 21.2461C21.7477 21.2781 21.8206 21.2969 21.8906 21.2969C22.0646 21.2969 22.2322 21.2069 22.3242 21.0469L23.5312 18.957C23.6612 18.731 23.5968 18.4449 23.3828 18.2969L21.8672 17.2422C21.9512 16.8382 22 16.426 22 16C22 15.574 21.9512 15.1598 21.8672 14.7578L23.3828 13.707C23.5968 13.559 23.6612 13.2709 23.5312 13.0469L22.3242 10.957C22.2322 10.797 22.0646 10.707 21.8906 10.707C21.8186 10.707 21.7477 10.7219 21.6797 10.7539L19.9922 11.5508C19.3782 11.0008 18.6574 10.5862 17.8594 10.3242L17.7031 8.45703C17.6831 8.19903 17.467 8 17.207 8H14.793ZM16 13C17.656 13 19 14.344 19 16C19 17.656 17.656 19 16 19C14.344 19 13 17.656 13 16C13 14.344 14.344 13 16 13Z" fill="#279BE9"/>
</svg>
