<svg width="70" height="70" viewBox="0 0 76 75" fill="none" xmlns="http://www.w3.org/2000/svg">
<path d="M40.6875 0.802979L2.34375 37.9848C0.83175 39.451 0 41.3984 0 43.4696C0 45.5409 0.83175 47.4883 2.34375 48.9545L26.3438 72.2272C27.8557 73.6934 29.864 74.4999 32 74.4999C34.136 74.4999 36.1442 73.6934 37.6562 72.2272L76 35.0454V0.802979H40.6875ZM44 8.56055H68V31.8333L32 66.7424L8 43.4696L44 8.56055ZM57.3828 16.7196L53.6641 20.3257C52.6721 19.5771 46.8114 15.6904 40.8594 21.4621C32.1754 29.8868 43.7335 36.1144 37.9375 41.7348C35.0375 44.5469 33.0909 42.7927 32.7109 42.4242C32.3629 42.0867 29.8881 40.0478 34.3281 35.7424L29.4141 30.9772C21.8981 38.2655 26.7531 44.1381 27.4531 45.0302L24 48.3787L26.6094 50.909L30.0625 47.553C31.0545 48.2977 36.8386 52.3307 42.8906 46.4621C51.2226 38.3826 40.638 31.207 45.75 26.2499C48.678 23.4068 50.3864 24.8822 50.7344 25.2196C51.3704 25.8364 52.322 27.8507 48.75 31.3106L53.6641 36.0757C60.4961 29.4507 56.8907 23.8937 56.2188 22.9318L60 19.2651L57.3828 16.7196Z" fill="#279BE9"/>
</svg>
