<svg width="56" height="56" viewBox="0 0 56 56" fill="none" xmlns="http://www.w3.org/2000/svg">
<rect width="56" height="56" rx="15" fill="#279BE9"/>
<path d="M17.4426 13C15.6807 13 14.2479 14.4452 14.2479 16.2222V32.3333C14.2479 29.9586 15.5418 27.9038 17.4426 26.7857V22.6667H39.8084L39.8053 38.7778H33.416C33.416 39.9571 33.0763 41.0478 32.5268 42H39.8053C41.5672 42 43 40.5548 43 38.7778V16.2222C43 14.4452 41.5672 13 39.8053 13H17.4426ZM17.4426 16.2222H39.8084V19.4444H17.4426V16.2222ZM33.416 27.5C31.6509 27.5 30.2213 28.9419 30.2213 30.7222C30.2213 31.1349 30.3028 31.5271 30.4428 31.8896L27.504 35.5965C27.3461 35.5708 27.1865 35.5571 27.0266 35.5556C26.7475 35.5557 26.4695 35.5927 26.1999 35.6657L23.7196 33.1641C23.7928 32.8933 23.8305 32.614 23.8319 32.3333C23.8319 31.4787 23.4954 30.6592 22.8962 30.0549C22.2971 29.4506 21.4846 29.1111 20.6373 29.1111C19.79 29.1111 18.9774 29.4506 18.3783 30.0549C17.7792 30.6592 17.4426 31.4787 17.4426 32.3333C17.4436 32.734 17.5187 33.131 17.6641 33.5039L13 39.3819L15.4958 41.3958L20.1599 35.5146C20.3178 35.5403 20.4774 35.554 20.6373 35.5556C20.9164 35.5554 21.1944 35.5184 21.464 35.4454L23.9443 37.9471C23.8711 38.2178 23.8334 38.4971 23.8319 38.7778C23.8319 39.6324 24.1685 40.4519 24.7676 41.0562C25.3668 41.6605 26.1793 42 27.0266 42C27.8739 42 28.6865 41.6605 29.2856 41.0562C29.8847 40.4519 30.2213 39.6324 30.2213 38.7778C30.2203 38.3771 30.1451 37.9801 29.9998 37.6072L32.9449 33.8972C33.1001 33.9206 33.2543 33.9444 33.416 33.9444C35.181 33.9444 36.6106 32.5025 36.6106 30.7222C36.6106 28.9419 35.181 27.5 33.416 27.5Z" fill="white"/>
</svg>
