<svg width="202" height="128" viewBox="0 0 202 128" fill="none" xmlns="http://www.w3.org/2000/svg">
<path d="M18.2857 0C18.2857 0 0 54.8571 0 82.2857C0 107.529 20.4709 128 45.7143 128H155.429C180.672 128 201.143 107.529 201.143 82.2857C201.143 54.8571 182.857 0 182.857 0H18.2857ZM31.7143 18.2857H169.446C175.097 37.1291 182.857 66.4869 182.857 82.2857C182.857 97.408 170.551 109.714 155.429 109.714H45.7143C30.592 109.714 18.2857 97.408 18.2857 82.2857C18.2857 66.5234 26.0549 37.1383 31.7143 18.2857ZM54.8571 36.5714V54.8571H36.5714V73.1429H54.8571V91.4286H73.1429V73.1429H91.4286V54.8571H73.1429V36.5714H54.8571ZM137.143 36.5714C134.718 36.5714 132.393 37.5347 130.678 39.2493C128.963 40.9639 128 43.2895 128 45.7143C128 48.1391 128.963 50.4646 130.678 52.1793C132.393 53.8939 134.718 54.8571 137.143 54.8571C139.568 54.8571 141.893 53.8939 143.608 52.1793C145.322 50.4646 146.286 48.1391 146.286 45.7143C146.286 43.2895 145.322 40.9639 143.608 39.2493C141.893 37.5347 139.568 36.5714 137.143 36.5714ZM155.429 73.1429C153.004 73.1429 150.678 74.1061 148.964 75.8207C147.249 77.5354 146.286 79.8609 146.286 82.2857C146.286 84.7106 147.249 87.0361 148.964 88.7507C150.678 90.4653 153.004 91.4286 155.429 91.4286C157.853 91.4286 160.179 90.4653 161.894 88.7507C163.608 87.0361 164.571 84.7106 164.571 82.2857C164.571 79.8609 163.608 77.5354 161.894 75.8207C160.179 74.1061 157.853 73.1429 155.429 73.1429Z" fill="white"/>
</svg>
