<svg width="56" height="56" viewBox="0 0 56 56" fill="none" xmlns="http://www.w3.org/2000/svg">
<rect width="56" height="56" rx="15" fill="#279BE9"/>
<path d="M10 14C10 14 6 26 6 32C6 37.522 10.478 42 16 42H40C45.522 42 50 37.522 50 32C50 26 46 14 46 14H10ZM12.9375 18H43.0664C44.3024 22.122 46 28.544 46 32C46 35.308 43.308 38 40 38H16C12.692 38 10 35.308 10 32C10 28.552 11.6995 22.124 12.9375 18ZM18 22V26H14V30H18V34H22V30H26V26H22V22H18ZM36 22C35.4696 22 34.9609 22.2107 34.5858 22.5858C34.2107 22.9609 34 23.4696 34 24C34 24.5304 34.2107 25.0391 34.5858 25.4142C34.9609 25.7893 35.4696 26 36 26C36.5304 26 37.0391 25.7893 37.4142 25.4142C37.7893 25.0391 38 24.5304 38 24C38 23.4696 37.7893 22.9609 37.4142 22.5858C37.0391 22.2107 36.5304 22 36 22ZM40 30C39.4696 30 38.9609 30.2107 38.5858 30.5858C38.2107 30.9609 38 31.4696 38 32C38 32.5304 38.2107 33.0391 38.5858 33.4142C38.9609 33.7893 39.4696 34 40 34C40.5304 34 41.0391 33.7893 41.4142 33.4142C41.7893 33.0391 42 32.5304 42 32C42 31.4696 41.7893 30.9609 41.4142 30.5858C41.0391 30.2107 40.5304 30 40 30Z" fill="white"/>
</svg>
