<svg width="56" height="56" viewBox="0 0 56 56" fill="none" xmlns="http://www.w3.org/2000/svg">
<rect width="56" height="56" rx="15" fill="#279BE9"/>
<path d="M27.7292 8.00223C19.3369 8.14233 12.3135 15.0195 12.0104 23.4085C11.7892 29.5195 15.106 34.8077 19.9987 37.678V41.9983C19.9987 44.1845 21.8126 45.9983 23.9987 45.9983L25.9987 47.9983H29.9987L31.9987 45.9983C34.1848 45.9983 35.9987 44.1845 35.9987 41.9983V37.6858C40.7363 34.9086 43.9987 29.8725 43.9987 23.9983C43.9987 15.0947 36.6626 7.85414 27.7292 8.00223ZM27.7956 11.9983C34.5461 11.8864 39.9987 17.278 39.9987 23.9983C39.9987 28.7983 37.1908 32.8993 33.1393 34.8264C32.7982 34.9888 32.51 35.2445 32.3081 35.5639C32.1063 35.8833 31.999 36.2533 31.9987 36.6311V37.9983H23.9987V36.6311C23.9985 36.2533 23.8912 35.8833 23.6893 35.5639C23.4875 35.2445 23.1993 34.9888 22.8581 34.8264C18.6838 32.8413 15.8257 28.5472 16.0065 23.553C16.2295 17.3358 21.5732 12.1022 27.7956 11.9983ZM23.9753 15.9983C23.9753 15.9983 21.0389 22.5445 22.3229 26.9085C23.2409 29.9985 26.5463 30.725 28.0143 29.635C28.1983 30.907 27.646 32.0021 27.28 33.0921L29.8503 33.9983C31.5023 29.2703 28.7484 23.8178 27.0964 21.2718C30.9504 23.9998 32.0495 28.5413 32.0495 28.5413C32.4175 28.3593 32.5995 27.9951 32.9675 27.6311C35.3555 24.7251 34.0693 17.9983 23.9753 15.9983Z" fill="white"/>
</svg>
