<svg width="56" height="56" viewBox="0 0 56 56" fill="none" xmlns="http://www.w3.org/2000/svg">
<rect width="56" height="56" rx="15" fill="#279BE9"/>
<path d="M31 9C29.344 9 28 10.344 28 12V13H10C7.81387 13 6 14.8139 6 17V39C6.00005 39.5304 6.21078 40.0391 6.58584 40.4142C6.96091 40.7892 7.46958 40.9999 8 41H12C12 44.29 14.71 47 18 47C21.29 47 24 44.29 24 41H32C32 44.29 34.71 47 38 47C41.29 47 44 44.29 44 41H48C48.5304 40.9999 49.0391 40.7892 49.4142 40.4142C49.7892 40.0391 49.9999 39.5304 50 39V27C50.0001 26.6895 49.9279 26.3832 49.7891 26.1055L44.3438 15.2148L44.3398 15.2109C43.6646 13.8612 42.2746 13 40.7656 13H34V12C34 10.344 32.656 9 31 9ZM10 17H34V27C34.0001 27.5304 34.2108 28.0391 34.5858 28.4142C34.9609 28.7892 35.4696 28.9999 36 29H46V37H42.4258C41.3243 35.7837 39.7528 35 38 35C36.2472 35 34.6757 35.7837 33.5742 37H22.4258C21.3243 35.7837 19.7528 35 18 35C16.2472 35 14.6757 35.7837 13.5742 37H10V17ZM38 17H40.7617L44.7617 25H38V17ZM20 21V25H16V29H20V33H24V29H28V25H24V21H20ZM18 39C19.1283 39 20 39.8717 20 41C20 42.1283 19.1283 43 18 43C16.8717 43 16 42.1283 16 41C16 39.8717 16.8717 39 18 39ZM38 39C39.1283 39 40 39.8717 40 41C40 42.1283 39.1283 43 38 43C36.8717 43 36 42.1283 36 41C36 39.8717 36.8717 39 38 39Z" fill="white"/>
</svg>
