<svg width="336" height="109" viewBox="0 0 336 109" fill="none" xmlns="http://www.w3.org/2000/svg">
<g opacity="0.2">
<mask id="mask0_97_340" style="mask-type:luminance" maskUnits="userSpaceOnUse" x="0" y="0" width="336" height="109">
<path d="M0 0H335.385V109H0V0Z" fill="white"/>
</mask>
<g mask="url(#mask0_97_340)">
<path d="M125.897 28.7549L84.3365 3.79592L42.7795 28.7549L0.298828 3.29204L1.97844 0.503883L42.7224 24.9624L84.3129 0L125.873 24.9624L167.481 0L209.041 24.9624L250.655 0L292.215 24.9624L332.959 0.503883L334.645 3.29204L292.249 28.7549L250.688 3.79592L209.128 28.7549L167.571 3.79592L125.897 28.7549ZM250.655 43.9353L292.215 68.8943L334.656 43.4314L332.999 40.613L292.255 65.0681L250.699 40.1091L209.138 65.0681L167.578 40.1091L126.021 65.0681L84.4607 40.1091L42.9005 65.0681L1.97844 40.613L0.298828 43.4314L42.7224 68.8943L84.2794 43.9353L125.84 68.8943L167.4 43.9353L208.957 68.8943L250.655 43.9353ZM250.655 84.0746L292.215 109.034L334.656 83.5707L332.969 80.7859L292.222 105.241L250.665 80.282L209.105 105.241L167.544 80.282L125.987 105.241L84.4272 80.282L42.8669 105.241L2.12289 80.7859L0.298828 83.5707L42.7224 109.034L84.2794 84.0746L125.84 109.034L167.4 84.0746L208.957 109.034L250.655 84.0746Z" fill="#279BE9"/>
</g>
</g>
<path d="M193.204 15C183.377 15 175.408 22.9593 175.408 32.775C175.408 34.5565 175.756 36.2433 176.242 37.8668L172.457 41.6471L167.429 36.9024C165.954 35.5199 164.016 34.75 161.999 34.75H155.109C151.966 34.75 148.948 35.9978 146.721 38.2217L127.473 57.4471C122.842 62.0725 122.842 69.5783 127.473 74.2037L144.952 91.6778C146.467 93.1986 148.488 94 150.545 94C151.747 94 152.959 93.7239 154.082 93.1591L175.508 82.4432L181.023 77.1816C184.235 74.1204 184.295 69.0157 181.155 65.8794L176.536 61.2736L188.106 49.7168C189.732 50.2026 191.42 50.55 193.204 50.55C203.031 50.55 211 42.5907 211 32.775C211 30.172 210.41 27.7123 209.401 25.4845L203.106 31.7721L196.193 29.7894L194.208 22.8846L200.503 16.597C198.273 15.5897 195.81 15 193.204 15ZM187.844 22.2057L188.508 24.5124L190.493 31.4249L191.397 34.5803L194.563 35.4906L201.476 37.4656L203.794 38.1291C201.828 41.9764 197.819 44.625 193.204 44.625C192.203 44.625 191.13 44.4414 189.813 44.0464L186.415 43.028L183.912 45.5276L172.349 57.0768L168.874 53.6051L180.436 42.056L182.939 39.5563L181.919 36.1618C181.524 34.8504 181.34 33.7744 181.34 32.775C181.34 28.1653 183.988 24.1649 187.844 22.2057ZM155.109 40.675H161.999C162.505 40.675 162.983 40.8674 163.351 41.215L168.209 45.7899L164.618 49.3696L160.424 53.5588L164.618 57.7479L176.953 70.0686C177.467 70.5821 177.536 71.18 177.532 71.4881C177.528 71.8001 177.448 72.3905 176.922 72.8922L172.048 77.5442L151.425 87.8667C151.152 88.005 150.853 88.075 150.545 88.075C150.015 88.075 149.518 87.8716 149.147 87.4964L131.667 70.0146C129.358 67.7038 129.354 63.947 131.667 61.6362L150.923 42.4108C152.042 41.293 153.528 40.675 155.109 40.675Z" fill="#279BE9"/>
</svg>
