<svg width="40" height="40" viewBox="0 0 40 40" fill="none" xmlns="http://www.w3.org/2000/svg">
<path d="M16 0C15.4696 5.30337e-05 14.9609 0.210784 14.5858 0.585845C14.2108 0.960906 14.0001 1.46958 14 2V4H10C6.71006 4 4 6.71006 4 10V14H2C1.46958 14.0001 0.960906 14.2108 0.585845 14.5858C0.210784 14.9609 5.30337e-05 15.4696 0 16V24C5.30337e-05 24.5304 0.210784 25.0391 0.585845 25.4142C0.960906 25.7892 1.46958 25.9999 2 26H4V30C4 33.2899 6.71006 36 10 36H14V38C14.0001 38.5304 14.2108 39.0391 14.5858 39.4142C14.9609 39.7892 15.4696 39.9999 16 40H24C24.5304 39.9999 25.0391 39.7892 25.4142 39.4142C25.7892 39.0391 25.9999 38.5304 26 38V36H30C33.2899 36 36 33.2899 36 30V26H38C38.5304 25.9999 39.0391 25.7892 39.4142 25.4142C39.7892 25.0391 39.9999 24.5304 40 24V16C39.9999 15.4696 39.7892 14.9609 39.4142 14.5858C39.0391 14.2108 38.5304 14.0001 38 14H36V10C36 6.71006 33.2899 4 30 4H26V2C25.9999 1.46958 25.7892 0.960906 25.4142 0.585845C25.0391 0.210784 24.5304 5.30337e-05 24 0H16ZM18 4H22V8H18V4ZM10 8H14V10C14.0001 10.5304 14.2108 11.0391 14.5858 11.4142C14.9609 11.7892 15.4696 11.9999 16 12H24C24.5304 11.9999 25.0391 11.7892 25.4142 11.4142C25.7892 11.0391 25.9999 10.5304 26 10V8H30C31.1301 8 32 8.86994 32 10V14H30C29.4696 14.0001 28.9609 14.2108 28.5858 14.5858C28.2108 14.9609 28.0001 15.4696 28 16V24C28.0001 24.5304 28.2108 25.0391 28.5858 25.4142C28.9609 25.7892 29.4696 25.9999 30 26H32V30C32 31.1301 31.1301 32 30 32H26V30C25.9999 29.4696 25.7892 28.9609 25.4142 28.5858C25.0391 28.2108 24.5304 28.0001 24 28H16C15.4696 28.0001 14.9609 28.2108 14.5858 28.5858C14.2108 28.9609 14.0001 29.4696 14 30V32H10C8.86994 32 8 31.1301 8 30V26H10C10.5304 25.9999 11.0391 25.7892 11.4142 25.4142C11.7892 25.0391 11.9999 24.5304 12 24V16C11.9999 15.4696 11.7892 14.9609 11.4142 14.5858C11.0391 14.2108 10.5304 14.0001 10 14H8V10C8 8.86994 8.86994 8 10 8ZM4 18H8V22H4V18ZM32 18H36V22H32V18ZM18 32H22V36H18V32Z" fill="#279BE9"/>
</svg>
