<svg width="129" height="128" viewBox="0 0 129 128" fill="none" xmlns="http://www.w3.org/2000/svg">
<path d="M117.535 0.0675941C116.64 -0.0302961 115.714 -0.0252906 114.782 0.105129C100.874 2.05994 68.5602 7.39767 36.5087 44.8345H19.5803L2.43928 62.6763C0.0562466 65.0593 -0.656421 68.615 0.637592 71.7348C1.9252 74.8545 4.94383 76.8646 8.31979 76.8646H22.8584L23.5215 77.5277C21.7715 79.7345 20.7819 82.0687 19.793 84.6344C18.5885 87.7598 17.5855 91.1627 16.7527 94.3685C15.0871 100.78 14.1002 106.492 14.1002 106.492L12.5112 115.488L21.5072 113.899C21.5072 113.899 27.2195 112.912 33.631 111.247C36.8368 110.414 40.2397 109.411 43.3651 108.206C45.9308 107.218 48.265 106.228 50.4718 104.478L51.1349 105.141V119.68C51.1349 123.056 53.145 126.081 56.2647 127.362C57.3217 127.804 58.4227 128 59.5053 128C61.6257 128 63.6756 127.214 65.1105 125.773L83.1649 109.32V91.4908C120.602 59.4393 125.94 27.1256 127.894 13.2174C128.807 6.69295 123.798 0.752822 117.535 0.0675941ZM114.895 13.1048C112.606 29.3965 107.449 61.3737 58.3417 94.2308L33.7686 69.6578C66.6258 20.5507 98.603 15.3931 114.895 13.1048ZM83.1649 38.4285C81.466 38.4285 79.8366 39.1035 78.6352 40.3048C77.4339 41.5062 76.7589 43.1356 76.7589 44.8345C76.7589 46.5335 77.4339 48.1629 78.6352 49.3643C79.8366 50.5656 81.466 51.2406 83.1649 51.2406C84.8639 51.2406 86.4933 50.5656 87.6947 49.3643C88.896 48.1629 89.5709 46.5335 89.5709 44.8345C89.5709 43.1356 88.896 41.5062 87.6947 40.3048C86.4933 39.1035 84.8639 38.4285 83.1649 38.4285ZM63.9469 57.6466C62.248 57.6466 60.6186 58.3215 59.4172 59.5228C58.2158 60.7242 57.5409 62.3536 57.5409 64.0526C57.5409 65.7515 58.2158 67.3809 59.4172 68.5823C60.6186 69.7836 62.248 70.4586 63.9469 70.4586C65.6459 70.4586 67.2753 69.7836 68.4767 68.5823C69.678 67.3809 70.3529 65.7515 70.3529 64.0526C70.3529 62.3536 69.678 60.7242 68.4767 59.5228C67.2753 58.3215 65.6459 57.6466 63.9469 57.6466ZM32.8678 86.874L41.1255 95.1317C40.44 95.4946 39.7032 95.8897 38.7483 96.2577C36.3467 97.1834 33.3158 98.0785 30.403 98.8352C29.5699 99.0516 29.6111 98.9939 28.814 99.1855C29.0056 98.3884 28.9479 98.4296 29.1643 97.5965C29.921 94.6837 30.8161 91.6528 31.7417 89.2512C32.1098 88.2962 32.5049 87.5595 32.8678 86.874Z" fill="#279BE9"/>
</svg>
