<svg width="136" height="128" viewBox="0 0 136 128" fill="none" xmlns="http://www.w3.org/2000/svg">
<path d="M14.2222 0L0 14.2222L10 29.2222C12.6382 33.1831 17.0831 35.5556 21.8333 35.5556H25.5L50.6528 60.7083L10.5833 100.764C5.94689 105.4 5.94689 112.919 10.5833 117.556L17.5417 124.514C19.867 126.839 22.9009 128 25.9444 128C28.9809 128 32.029 126.846 34.3472 124.528L67.5556 91.3056L100.764 124.528C103.082 126.846 106.13 128 109.167 128C112.203 128 115.237 126.846 117.556 124.528L124.514 117.569C129.15 112.933 129.15 105.414 124.514 100.778L91.3056 67.5556L102.403 56.4583C103.804 56.6646 105.209 56.8889 106.667 56.8889C122.375 56.8889 135.111 44.1529 135.111 28.4444C135.111 24.2773 134.17 20.3404 132.556 16.7778L122.5 26.8333L111.444 23.6667L108.278 12.6111L118.333 2.55556C114.771 0.941333 110.834 0 106.667 0C90.9582 0 78.2222 12.736 78.2222 28.4444C78.2222 29.9022 78.4466 31.3074 78.6528 32.7083L60.7083 50.6528L35.5556 25.5V21.8333C35.5556 17.0831 33.1831 12.6382 29.2222 10L14.2222 0ZM97.375 13.2917L98.0139 15.5556L101.181 26.6111L102.806 32.3056L108.5 33.9306L119.556 37.0972L121.819 37.75C118.683 42.8273 113.067 46.2222 106.667 46.2222C106.048 46.2222 105.102 46.0802 104 45.9167L98.6806 45.1111L94.8611 48.9167L83.7639 60.0139L83.6944 59.9445L59.9445 83.6944L60.0139 83.7639L26.8056 116.972C26.5709 117.207 26.2716 117.333 25.9444 117.333C25.6173 117.333 25.3319 117.207 25.0972 116.972L18.1389 110.028C17.6696 109.558 17.6696 108.782 18.1389 108.306L86.1944 40.25L89.9861 36.3333L89.1806 31C89.0312 30.0044 88.8889 29.0631 88.8889 28.4444C88.8889 22.0444 92.2906 16.4206 97.375 13.2917ZM83.7639 75.0972L116.986 108.306C117.455 108.775 117.455 109.537 116.986 110.014L110.028 116.972C109.793 117.207 109.508 117.319 109.181 117.319C108.846 117.319 108.554 117.207 108.319 116.972L75.1111 83.7639L83.7639 75.0972Z" fill="#279BE9"/>
</svg>
