<svg width="56" height="56" viewBox="0 0 56 56" fill="none" xmlns="http://www.w3.org/2000/svg">
<rect width="56" height="56" rx="15" fill="#279BE9"/>
<path d="M36.9727 10L32.9688 14.0039C31.5043 14.0154 30.2422 14.8174 29.5547 16H20.6523C19.8545 13.6381 17.6889 12 15 12C11.6 12 9 14.6 9 18C9 20.9458 10.9547 23.2854 13.6875 23.8594L18.125 34H15C12.8 34 11 35.8 11 38V46H45V38C45 35.8 43.2 34 41 34H24.125L19.0703 22.4414C19.7884 21.7859 20.3298 20.9547 20.6523 20H29.5547C30.2422 21.1826 31.5043 21.9846 32.9688 21.9961L36.9727 26H47V22H38.6289L34.6289 18L38.6289 14H47V10H36.9727ZM15 16C16.196 16 17 16.804 17 18C17 19.196 16.196 20 15 20C13.804 20 13 19.196 13 18C13 16.804 13.804 16 15 16ZM15 38H41V42H15V38Z" fill="white"/>
</svg>
