<svg width="56" height="56" viewBox="0 0 56 56" fill="none" xmlns="http://www.w3.org/2000/svg">
<rect width="56" height="56" rx="15" fill="#279BE9"/>
<path d="M39.9972 6.00024C39.4675 6.00852 38.9627 6.22664 38.5936 6.60673C38.2245 6.98682 38.0212 7.49782 38.0285 8.02759V12.2737C37.264 12.4525 36.5742 12.7456 35.9347 13.1057L32.9582 10.1292C32.7717 9.93638 32.5483 9.7831 32.3013 9.67841C32.0544 9.57372 31.7889 9.51978 31.5207 9.51978C31.1223 9.51986 30.7331 9.63888 30.4028 9.8616C30.0725 10.0843 29.8162 10.4006 29.6669 10.7699C29.5175 11.1391 29.4817 11.5446 29.5643 11.9343C29.6468 12.324 29.8438 12.6802 30.13 12.9573L33.0871 15.9143C32.7122 16.5809 32.4632 17.2962 32.2902 18.0276H28.0285C27.7635 18.0238 27.5003 18.0728 27.2544 18.1716C27.0085 18.2705 26.7846 18.4172 26.5959 18.6033C26.4071 18.7894 26.2573 19.0111 26.155 19.2556C26.0527 19.5001 26 19.7625 26 20.0276C26 20.2926 26.0527 20.555 26.155 20.7996C26.2573 21.0441 26.4071 21.2658 26.5959 21.4519C26.7846 21.638 27.0085 21.7847 27.2544 21.8835C27.5003 21.9824 27.7635 22.0313 28.0285 22.0276H32.2902C32.4632 22.759 32.7122 23.4743 33.0871 24.1409L30.13 27.0979C29.9381 27.2822 29.7849 27.5029 29.6793 27.7472C29.5737 27.9914 29.518 28.2543 29.5153 28.5204C29.5126 28.7865 29.563 29.0504 29.6636 29.2967C29.7641 29.5431 29.9129 29.7669 30.101 29.9551C30.2892 30.1432 30.513 30.2919 30.7593 30.3925C31.0057 30.4931 31.2696 30.5435 31.5357 30.5408C31.8018 30.5381 32.0646 30.4823 32.3089 30.3768C32.5531 30.2712 32.7739 30.118 32.9582 29.926L35.9347 26.9495C36.5742 27.3095 37.264 27.6027 38.0285 27.7815V32.0276V36.3479C38.0285 37.3152 37.2887 38.0588 36.3215 38.0588H28.0285C28.0198 34.7495 25.2928 32.0276 21.9816 32.0276H16.0285C16.0321 31.76 15.9821 31.4944 15.8813 31.2465C15.7804 30.9987 15.6309 30.7735 15.4415 30.5845C15.2521 30.3954 15.0266 30.2463 14.7786 30.146C14.5305 30.0456 14.2648 29.9961 13.9972 30.0002C13.4675 30.0085 12.9627 30.2266 12.5936 30.6067C12.2245 30.9868 12.0212 31.4978 12.0285 32.0276V34.0276H8.02849C7.76346 34.0238 7.50034 34.0728 7.2544 34.1716C7.00846 34.2705 6.78462 34.4172 6.59588 34.6033C6.40714 34.7894 6.25727 35.0111 6.15497 35.2556C6.05268 35.5001 6 35.7625 6 36.0276C6 36.2926 6.05268 36.555 6.15497 36.7996C6.25727 37.0441 6.40714 37.2658 6.59588 37.4519C6.78462 37.638 7.00846 37.7847 7.2544 37.8835C7.50034 37.9824 7.76346 38.0313 8.02849 38.0276H12.0285V42.0276H8.02849C7.76346 42.0238 7.50034 42.0728 7.2544 42.1716C7.00846 42.2705 6.78462 42.4172 6.59588 42.6033C6.40714 42.7894 6.25727 43.0111 6.15497 43.2556C6.05268 43.5001 6 43.7625 6 44.0276C6 44.2926 6.05268 44.555 6.15497 44.7996C6.25727 45.0441 6.40714 45.2658 6.59588 45.4519C6.78462 45.638 7.00846 45.7847 7.2544 45.8835C7.50034 45.9824 7.76346 46.0313 8.02849 46.0276H12.0285V48.0276C12.0247 48.2926 12.0737 48.5557 12.1725 48.8017C12.2714 49.0476 12.4181 49.2715 12.6042 49.4602C12.7903 49.6489 13.012 49.7988 13.2565 49.9011C13.501 50.0034 13.7634 50.0561 14.0285 50.0561C14.2935 50.0561 14.5559 50.0034 14.8005 49.9011C15.045 49.7988 15.2667 49.6489 15.4528 49.4602C15.6389 49.2715 15.7856 49.0476 15.8844 48.8017C15.9833 48.5557 16.0322 48.2926 16.0285 48.0276H21.9816C25.2714 48.0276 27.9771 45.3391 28.0207 42.0588H36.3215C39.4502 42.0588 42.0285 39.4766 42.0285 36.3479V28.0276V27.7815C42.793 27.6027 43.4828 27.3095 44.1222 26.9495L47.0988 29.926C47.2831 30.118 47.5038 30.2712 47.7481 30.3768C47.9923 30.4823 48.2552 30.5381 48.5213 30.5408C48.7874 30.5435 49.0513 30.4931 49.2976 30.3925C49.544 30.2919 49.7678 30.1432 49.956 29.9551C50.1441 29.7669 50.2928 29.5431 50.3934 29.2967C50.494 29.0504 50.5444 28.7865 50.5417 28.5204C50.539 28.2543 50.4832 27.9914 50.3777 27.7472C50.2721 27.5029 50.1189 27.2822 49.9269 27.0979L46.9699 24.1409C47.3447 23.4743 47.5937 22.759 47.7668 22.0276H52.0285C52.2935 22.0313 52.5566 21.9824 52.8026 21.8835C53.0485 21.7847 53.2724 21.638 53.4611 21.4519C53.6498 21.2658 53.7997 21.0441 53.902 20.7996C54.0043 20.555 54.057 20.2926 54.057 20.0276C54.057 19.7625 54.0043 19.5001 53.902 19.2556C53.7997 19.0111 53.6498 18.7894 53.4611 18.6033C53.2724 18.4172 53.0485 18.2705 52.8026 18.1716C52.5566 18.0728 52.2935 18.0238 52.0285 18.0276H47.7668C47.5937 17.2962 47.3447 16.5809 46.9699 15.9143L49.9269 12.9573C50.2159 12.6763 50.4133 12.3147 50.4932 11.9196C50.5732 11.5246 50.5319 11.1146 50.3748 10.7434C50.2177 10.3723 49.9522 10.0572 49.6129 9.83956C49.2737 9.6219 48.8767 9.5118 48.4738 9.52368C47.9542 9.53916 47.461 9.75632 47.0988 10.1292L44.1222 13.1057C43.4828 12.7456 42.793 12.4525 42.0285 12.2737V8.02759C42.0321 7.76001 41.9821 7.49442 41.8813 7.24653C41.7804 6.99865 41.6309 6.77353 41.4415 6.58448C41.2521 6.39544 41.0266 6.24633 40.7786 6.14597C40.5305 6.04562 40.2648 5.99606 39.9972 6.00024ZM39.8332 16.0432C39.9657 16.0565 40.0991 16.0565 40.2316 16.0432C41.2119 16.0763 41.9204 16.3236 42.4582 16.7151C42.6383 17.0691 42.9198 17.3615 43.2668 17.5549C43.7122 18.1901 43.9769 18.9918 44.0129 19.8323C43.9996 19.9648 43.9996 20.0982 44.0129 20.2307C43.9751 21.0805 43.703 21.8904 43.2472 22.5276C42.9203 22.7165 42.6535 22.9942 42.4777 23.3284C41.9353 23.729 41.2176 23.9803 40.2199 24.012C40.1459 24.0039 40.0716 24 39.9972 24.0002C39.9398 24.0017 39.8825 24.0056 39.8254 24.012C38.8342 23.9785 38.1194 23.7273 37.5793 23.3284C37.4036 22.9907 37.1353 22.7102 36.8058 22.5198C36.3517 21.8817 36.0804 21.0724 36.0441 20.2229C36.0574 20.0904 36.0574 19.9569 36.0441 19.8245C36.0813 18.988 36.3473 18.1916 36.7902 17.5588C37.1377 17.3644 37.4193 17.0706 37.5988 16.7151C38.138 16.3225 38.8485 16.0751 39.8332 16.0432ZM16.0558 36.0276H21.9816C23.1371 36.0276 24.0285 36.919 24.0285 38.0745V41.9807C24.0285 43.1362 23.1371 44.0276 21.9816 44.0276H16.0558C16.0551 43.9216 16.046 43.8158 16.0285 43.7112V36.3635C16.047 36.2525 16.0562 36.1401 16.0558 36.0276Z" fill="white"/>
</svg>
