<svg width="336" height="109" viewBox="0 0 336 109" fill="none" xmlns="http://www.w3.org/2000/svg">
<g opacity="0.2">
<mask id="mask0_192_329" style="mask-type:luminance" maskUnits="userSpaceOnUse" x="0" y="0" width="336" height="109">
<path d="M0 0H335.385V109H0V0Z" fill="white"/>
</mask>
<g mask="url(#mask0_192_329)">
<path d="M125.897 28.7549L84.3365 3.79592L42.7795 28.7549L0.298828 3.29204L1.97844 0.503883L42.7224 24.9624L84.3129 0L125.873 24.9624L167.481 0L209.041 24.9624L250.655 0L292.215 24.9624L332.959 0.503883L334.645 3.29204L292.249 28.7549L250.688 3.79592L209.128 28.7549L167.571 3.79592L125.897 28.7549ZM250.655 43.9353L292.215 68.8943L334.656 43.4314L332.999 40.613L292.255 65.0681L250.699 40.1091L209.138 65.0681L167.578 40.1091L126.021 65.0681L84.4607 40.1091L42.9005 65.0681L1.97844 40.613L0.298828 43.4314L42.7224 68.8943L84.2794 43.9353L125.84 68.8943L167.4 43.9353L208.957 68.8943L250.655 43.9353ZM250.655 84.0746L292.215 109.034L334.656 83.5707L332.969 80.7859L292.222 105.241L250.665 80.282L209.105 105.241L167.544 80.282L125.987 105.241L84.4272 80.282L42.8669 105.241L2.12289 80.7859L0.298828 83.5707L42.7224 109.034L84.2794 84.0746L125.84 109.034L167.4 84.0746L208.957 109.034L250.655 84.0746Z" fill="#279BE9"/>
</g>
</g>
<path d="M136 10C131.58 10 128 13.58 128 18V82C128 86.42 131.58 90 136 90H177.711C176.575 87.348 176 84.564 176 82H136V34H184V42H192V18C192 13.58 188.42 10 184 10H136ZM136 18H184V26H136V18ZM144 42V50H152V42H144ZM156 42V50H164V42H156ZM168 42V50H176V42H168ZM192 50V54.7969C188 55.9969 184 59.6 184 66C184 73.6 190.398 76.0016 194.398 77.6016C199.198 79.6016 200 80 200 82C200 84 199.2 86 196 86C192.8 86 192 84 192 82H184C184 86 186.4 91.6031 192 93.2031V98H200V93.2031C205.6 91.6031 208 86 208 82C208 74.4 201.602 71.9984 197.602 70.3984C192.802 68.3984 192 68 192 66C192 62.8 194 62 196 62C199.2 62 200 64 200 66H204H208C208 62 205.6 56.3969 200 54.7969V50H192ZM144 54V62H152V54H144ZM156 54V62H164V54H156ZM168 54V62H176V54H168ZM144 66V74H152V66H144ZM156 66V74H176V66H156Z" fill="#279BE9"/>
</svg>
