<svg width="116" height="128" viewBox="0 0 116 128" fill="none" xmlns="http://www.w3.org/2000/svg">
<path d="M57.6 0C49.2544 0 42.2182 5.3568 39.575 12.8H12.8C5.728 12.8 0 18.528 0 25.6V115.2C0 122.272 5.728 128 12.8 128H102.4C109.472 128 115.2 122.272 115.2 115.2V25.6C115.2 18.528 109.472 12.8 102.4 12.8H75.625C72.9818 5.3568 65.9456 0 57.6 0ZM57.6 12.8C61.1328 12.8 64 15.6672 64 19.2C64 22.7328 61.1328 25.6 57.6 25.6H102.4V115.2H12.8V25.6H57.6C54.0672 25.6 51.2 22.7328 51.2 19.2C51.2 15.6672 54.0672 12.8 57.6 12.8ZM86.95 38.4L74.15 51.2H64V64H79.45L96 47.45L86.95 38.4ZM25.6 51.2V64H51.2V51.2H25.6ZM73.05 76.8L64 85.85L70.95 92.8L64 99.75L73.05 108.8L80 101.85L86.95 108.8L96 99.75L89.05 92.8L96 85.85L86.95 76.8L80 83.75L73.05 76.8ZM25.6 89.6V102.4H51.2V89.6H25.6Z" fill="#279BE9"/>
</svg>
