<svg width="80" height="27" viewBox="0 0 80 27" fill="none" xmlns="http://www.w3.org/2000/svg">
<path d="M0.703125 18V7.09091H5.41193C6.22159 7.09091 6.93004 7.23828 7.53729 7.53303C8.14453 7.82777 8.61683 8.25213 8.95419 8.80611C9.29155 9.36009 9.46023 10.0241 9.46023 10.7983C9.46023 11.5795 9.28622 12.2383 8.93821 12.7745C8.59375 13.3107 8.10902 13.7156 7.48402 13.989C6.86257 14.2624 6.13636 14.3991 5.3054 14.3991H2.4929V12.098H4.70881C5.05682 12.098 5.35334 12.0554 5.59837 11.9702C5.84695 11.8814 6.03693 11.7411 6.16832 11.5494C6.30327 11.3576 6.37074 11.1072 6.37074 10.7983C6.37074 10.4858 6.30327 10.2319 6.16832 10.0366C6.03693 9.83771 5.84695 9.69212 5.59837 9.59979C5.35334 9.50391 5.05682 9.45597 4.70881 9.45597H3.66477V18H0.703125ZM7.09517 12.9929L9.82244 18H6.60511L3.94176 12.9929H7.09517ZM15.2184 7.09091H18.1374V14.5696C18.1339 15.2798 17.9545 15.9048 17.5994 16.4446C17.2479 16.9808 16.7614 17.3999 16.1399 17.7017C15.522 18 14.81 18.1491 14.0039 18.1491C13.3043 18.1491 12.6651 18.0284 12.0863 17.7869C11.5075 17.5419 11.0458 17.1584 10.7013 16.6364C10.3569 16.1108 10.1864 15.429 10.19 14.5909H13.1516C13.1623 14.8643 13.2085 15.0952 13.2901 15.2834C13.3754 15.4716 13.4925 15.6136 13.6417 15.7095C13.7944 15.8018 13.979 15.848 14.1957 15.848C14.4158 15.848 14.6005 15.8001 14.7496 15.7042C14.9023 15.6083 15.0178 15.4663 15.0959 15.2781C15.174 15.0863 15.2148 14.8501 15.2184 14.5696V7.09091Z" fill="#279BE9"/>
<path d="M22.126 18C21.378 18 20.83 17.826 20.482 17.478C20.134 17.13 19.96 16.582 19.96 15.834V14.478C19.96 13.73 20.132 13.184 20.476 12.84C20.824 12.492 21.374 12.322 22.126 12.33H23.11C23.698 12.33 24.146 12.43 24.454 12.63C24.766 12.826 24.952 13.136 25.012 13.56C25.024 13.668 25 13.75 24.94 13.806C24.884 13.862 24.804 13.89 24.7 13.89C24.604 13.89 24.532 13.866 24.484 13.818C24.436 13.766 24.4 13.692 24.376 13.596C24.332 13.364 24.214 13.2 24.022 13.104C23.83 13.008 23.526 12.96 23.11 12.96H22.126C21.554 12.952 21.154 13.06 20.926 13.284C20.702 13.504 20.59 13.902 20.59 14.478V15.834C20.59 16.406 20.702 16.806 20.926 17.034C21.154 17.258 21.554 17.37 22.126 17.37H23.11C23.526 17.37 23.83 17.322 24.022 17.226C24.214 17.13 24.332 16.964 24.376 16.728C24.4 16.632 24.436 16.56 24.484 16.512C24.532 16.46 24.604 16.434 24.7 16.434C24.804 16.434 24.884 16.464 24.94 16.524C25 16.58 25.024 16.66 25.012 16.764C24.952 17.188 24.766 17.5 24.454 17.7C24.146 17.9 23.698 18 23.11 18H22.126ZM28.9815 18C28.2335 18 27.6855 17.828 27.3375 17.484C26.9895 17.136 26.8155 16.59 26.8155 15.846V14.49C26.8155 13.734 26.9895 13.184 27.3375 12.84C27.6855 12.492 28.2335 12.322 28.9815 12.33H29.9655C30.7135 12.33 31.2595 12.504 31.6035 12.852C31.9515 13.196 32.1255 13.742 32.1255 14.49V15.834C32.1255 16.582 31.9515 17.13 31.6035 17.478C31.2595 17.826 30.7135 18 29.9655 18H28.9815ZM27.4455 15.846C27.4455 16.41 27.5575 16.806 27.7815 17.034C28.0095 17.258 28.4095 17.37 28.9815 17.37H29.9655C30.5375 17.37 30.9355 17.258 31.1595 17.034C31.3835 16.806 31.4955 16.406 31.4955 15.834V14.49C31.4955 13.918 31.3835 13.52 31.1595 13.296C30.9355 13.072 30.5375 12.96 29.9655 12.96H28.9815C28.5975 12.956 28.2935 13.002 28.0695 13.098C27.8455 13.194 27.6855 13.354 27.5895 13.578C27.4935 13.802 27.4455 14.106 27.4455 14.49V15.846ZM34.5259 18C34.3139 18 34.2079 17.894 34.2079 17.682V12.642C34.2079 12.434 34.3139 12.33 34.5259 12.33C34.7339 12.33 34.8379 12.434 34.8379 12.642V13.218C35.2179 12.626 35.9059 12.33 36.9019 12.33H37.2379C37.9859 12.33 38.5319 12.504 38.8759 12.852C39.2239 13.196 39.3979 13.742 39.3979 14.49V17.682C39.3979 17.894 39.2939 18 39.0859 18C38.8739 18 38.7679 17.894 38.7679 17.682V14.49C38.7679 13.918 38.6539 13.52 38.4259 13.296C38.2019 13.072 37.8059 12.96 37.2379 12.96H36.9019C36.2819 12.96 35.7939 13.058 35.4379 13.254C35.0819 13.45 34.8819 13.756 34.8379 14.172V17.682C34.8379 17.894 34.7339 18 34.5259 18ZM42.7742 17.988C42.2822 17.988 41.9062 17.884 41.6462 17.676C41.3862 17.464 41.2302 17.142 41.1782 16.71C41.1662 16.606 41.1882 16.526 41.2442 16.47C41.3002 16.41 41.3822 16.38 41.4902 16.38C41.5902 16.38 41.6642 16.406 41.7122 16.458C41.7642 16.51 41.7982 16.588 41.8142 16.692C41.8502 16.94 41.9402 17.114 42.0842 17.214C42.2322 17.31 42.4622 17.358 42.7742 17.358H44.7422C45.1142 17.358 45.3702 17.288 45.5102 17.148C45.6502 17.008 45.7202 16.752 45.7202 16.38C45.7202 16.004 45.6502 15.746 45.5102 15.606C45.3702 15.466 45.1142 15.396 44.7422 15.396H42.7982C42.2782 15.396 41.8902 15.272 41.6342 15.024C41.3822 14.772 41.2562 14.386 41.2562 13.866C41.2562 13.334 41.3822 12.944 41.6342 12.696C41.8862 12.444 42.2742 12.318 42.7982 12.318H44.6822C45.5862 12.318 46.0882 12.718 46.1882 13.518C46.2042 13.622 46.1822 13.704 46.1222 13.764C46.0662 13.82 45.9862 13.848 45.8822 13.848C45.7822 13.848 45.7062 13.822 45.6542 13.77C45.6062 13.718 45.5722 13.642 45.5522 13.542C45.5242 13.318 45.4422 13.164 45.3062 13.08C45.1742 12.992 44.9662 12.948 44.6822 12.948H42.7982C42.4502 12.948 42.2102 13.012 42.0782 13.14C41.9502 13.268 41.8862 13.51 41.8862 13.866C41.8862 14.206 41.9522 14.442 42.0842 14.574C42.2162 14.702 42.4542 14.766 42.7982 14.766H44.7422C45.2942 14.766 45.7002 14.898 45.9602 15.162C46.2202 15.422 46.3502 15.828 46.3502 16.38C46.3502 16.928 46.2202 17.334 45.9602 17.598C45.7002 17.858 45.2942 17.988 44.7422 17.988H42.7742ZM52.9993 12.33C53.2113 12.33 53.3173 12.434 53.3173 12.642V17.682C53.3173 17.894 53.2113 18 52.9993 18C52.7913 18 52.6873 17.894 52.6873 17.682V17.112C52.3073 17.704 51.6193 18 50.6233 18H50.2873C49.5393 18 48.9913 17.826 48.6433 17.478C48.2993 17.13 48.1273 16.582 48.1273 15.834V12.642C48.1273 12.434 48.2313 12.33 48.4393 12.33C48.6513 12.33 48.7573 12.434 48.7573 12.642V15.834C48.7573 16.406 48.8693 16.806 49.0933 17.034C49.3213 17.258 49.7193 17.37 50.2873 17.37H50.6233C51.2433 17.37 51.7313 17.27 52.0873 17.07C52.4433 16.87 52.6433 16.564 52.6873 16.152V12.642C52.6873 12.434 52.7913 12.33 52.9993 12.33ZM57.2095 18C56.6415 18 56.2235 17.868 55.9555 17.604C55.6915 17.34 55.5595 16.926 55.5595 16.362V9.99C55.5595 9.782 55.6655 9.678 55.8775 9.678C56.0855 9.678 56.1895 9.782 56.1895 9.99V16.362C56.1895 16.75 56.2615 17.016 56.4055 17.16C56.5495 17.3 56.8155 17.37 57.2035 17.37C57.4195 17.37 57.5275 17.474 57.5275 17.682C57.5315 17.894 57.4255 18 57.2095 18ZM61.2505 18C60.5145 18 59.9765 17.83 59.6365 17.49C59.2965 17.15 59.1265 16.614 59.1265 15.882V12.96H58.4125C58.2005 12.96 58.0945 12.854 58.0945 12.642C58.0945 12.434 58.2005 12.33 58.4125 12.33H59.1265V11.04C59.1265 10.828 59.2305 10.722 59.4385 10.722C59.6505 10.722 59.7565 10.828 59.7565 11.04V12.33H61.2625C61.4705 12.33 61.5745 12.434 61.5745 12.642C61.5745 12.854 61.4705 12.96 61.2625 12.96H59.7565V15.882C59.7565 16.442 59.8645 16.83 60.0805 17.046C60.3005 17.262 60.6905 17.37 61.2505 17.37C61.3665 17.37 61.4485 17.396 61.4965 17.448C61.5485 17.5 61.5745 17.578 61.5745 17.682C61.5745 17.894 61.4665 18 61.2505 18ZM63.4153 11.238C63.1393 11.238 63.0013 11.096 63.0013 10.812V10.542C63.0013 10.266 63.1393 10.128 63.4153 10.128H63.6853C63.9533 10.128 64.0873 10.266 64.0873 10.542V10.812C64.0873 11.096 63.9533 11.238 63.6853 11.238H63.4153ZM63.5533 18C63.3413 18 63.2353 17.894 63.2353 17.682V12.642C63.2353 12.434 63.3413 12.33 63.5533 12.33C63.7613 12.33 63.8653 12.434 63.8653 12.642V17.682C63.8653 17.894 63.7613 18 63.5533 18ZM66.4244 18C66.2124 18 66.1064 17.894 66.1064 17.682V12.642C66.1064 12.434 66.2124 12.33 66.4244 12.33C66.6324 12.33 66.7364 12.434 66.7364 12.642V13.218C67.1164 12.626 67.8044 12.33 68.8004 12.33H69.1364C69.8844 12.33 70.4304 12.504 70.7744 12.852C71.1224 13.196 71.2964 13.742 71.2964 14.49V17.682C71.2964 17.894 71.1924 18 70.9844 18C70.7724 18 70.6664 17.894 70.6664 17.682V14.49C70.6664 13.918 70.5524 13.52 70.3244 13.296C70.1004 13.072 69.7044 12.96 69.1364 12.96H68.8004C68.1804 12.96 67.6924 13.058 67.3364 13.254C66.9804 13.45 66.7804 13.756 66.7364 14.172V17.682C66.7364 17.894 66.6324 18 66.4244 18ZM74.8106 20.4C74.3386 20.4 73.9786 20.302 73.7306 20.106C73.4826 19.914 73.3366 19.61 73.2926 19.194C73.2806 19.09 73.3026 19.008 73.3586 18.948C73.4146 18.888 73.4926 18.858 73.5926 18.858C73.6926 18.858 73.7686 18.884 73.8206 18.936C73.8726 18.988 73.9066 19.066 73.9226 19.17C73.9506 19.402 74.0326 19.56 74.1686 19.644C74.3046 19.728 74.5186 19.77 74.8106 19.77H77.0426C77.3946 19.77 77.6326 19.706 77.7566 19.578C77.8846 19.45 77.9486 19.21 77.9486 18.858V17.142C77.7646 17.422 77.5046 17.636 77.1686 17.784C76.8326 17.928 76.4066 18 75.8906 18H75.4346C74.6866 18 74.1386 17.828 73.7906 17.484C73.4426 17.136 73.2686 16.59 73.2686 15.846V14.49C73.2686 13.734 73.4406 13.186 73.7846 12.846C74.1326 12.502 74.6826 12.33 75.4346 12.33H76.4186C76.8106 12.33 77.1286 12.382 77.3726 12.486C77.6166 12.59 77.8086 12.752 77.9486 12.972V12.642C77.9486 12.434 78.0546 12.33 78.2666 12.33C78.4746 12.33 78.5786 12.434 78.5786 12.642V18.858C78.5786 19.386 78.4546 19.774 78.2066 20.022C77.9586 20.274 77.5706 20.4 77.0426 20.4H74.8106ZM75.4346 17.37H75.8906C76.5146 17.37 77.0126 17.272 77.3846 17.076C77.7606 16.88 77.9486 16.582 77.9486 16.182V14.178C77.9486 13.726 77.8226 13.41 77.5706 13.23C77.3186 13.05 76.9346 12.96 76.4186 12.96H75.4346C74.8626 12.96 74.4626 13.072 74.2346 13.296C74.0106 13.516 73.8986 13.914 73.8986 14.49V15.846C73.8986 16.41 74.0106 16.806 74.2346 17.034C74.4626 17.258 74.8626 17.37 75.4346 17.37Z" fill="#050D22"/>
</svg>
