<svg width="336" height="109" viewBox="0 0 336 109" fill="none" xmlns="http://www.w3.org/2000/svg">
<g opacity="0.2">
<mask id="mask0_97_323" style="mask-type:luminance" maskUnits="userSpaceOnUse" x="0" y="0" width="336" height="109">
<path d="M0 0H335.385V109H0V0Z" fill="white"/>
</mask>
<g mask="url(#mask0_97_323)">
<path d="M125.897 28.7549L84.3365 3.79592L42.7795 28.7549L0.298828 3.29204L1.97844 0.503883L42.7224 24.9624L84.3129 0L125.873 24.9624L167.481 0L209.041 24.9624L250.655 0L292.215 24.9624L332.959 0.503883L334.645 3.29204L292.249 28.7549L250.688 3.79592L209.128 28.7549L167.571 3.79592L125.897 28.7549ZM250.655 43.9353L292.215 68.8943L334.656 43.4314L332.999 40.613L292.255 65.0681L250.699 40.1091L209.138 65.0681L167.578 40.1091L126.021 65.0681L84.4607 40.1091L42.9005 65.0681L1.97844 40.613L0.298828 43.4314L42.7224 68.8943L84.2794 43.9353L125.84 68.8943L167.4 43.9353L208.957 68.8943L250.655 43.9353ZM250.655 84.0746L292.215 109.034L334.656 83.5707L332.969 80.7859L292.222 105.241L250.665 80.282L209.105 105.241L167.544 80.282L125.987 105.241L84.4272 80.282L42.8669 105.241L2.12289 80.7859L0.298828 83.5707L42.7224 109.034L84.2794 84.0746L125.84 109.034L167.4 84.0746L208.957 109.034L250.655 84.0746Z" fill="#279BE9"/>
</g>
</g>
<path d="M164 8C162.939 8.00011 161.922 8.42157 161.172 9.17169C160.422 9.92181 160 10.9392 160 12V16H152C145.42 16 140 21.4201 140 28V36H136C134.939 36.0001 133.922 36.4216 133.172 37.1717C132.422 37.9218 132 38.9392 132 40V56C132 57.0608 132.422 58.0782 133.172 58.8283C133.922 59.5784 134.939 59.9999 136 60H140V68C140 74.5799 145.42 80 152 80H160V84C160 85.0608 160.422 86.0782 161.172 86.8283C161.922 87.5784 162.939 87.9999 164 88H180C181.061 87.9999 182.078 87.5784 182.828 86.8283C183.578 86.0782 184 85.0608 184 84V80H192C198.58 80 204 74.5799 204 68V60H208C209.061 59.9999 210.078 59.5784 210.828 58.8283C211.578 58.0782 212 57.0608 212 56V40C212 38.9392 211.578 37.9218 210.828 37.1717C210.078 36.4216 209.061 36.0001 208 36H204V28C204 21.4201 198.58 16 192 16H184V12C184 10.9392 183.578 9.92181 182.828 9.17169C182.078 8.42157 181.061 8.00011 180 8H164ZM168 16H176V24H168V16ZM152 24H160V28C160 29.0608 160.422 30.0782 161.172 30.8283C161.922 31.5784 162.939 31.9999 164 32H180C181.061 31.9999 182.078 31.5784 182.828 30.8283C183.578 30.0782 184 29.0608 184 28V24H192C194.26 24 196 25.7399 196 28V36H192C190.939 36.0001 189.922 36.4216 189.172 37.1717C188.422 37.9218 188 38.9392 188 40V56C188 57.0608 188.422 58.0782 189.172 58.8283C189.922 59.5784 190.939 59.9999 192 60H196V68C196 70.2601 194.26 72 192 72H184V68C184 66.9392 183.578 65.9218 182.828 65.1717C182.078 64.4216 181.061 64.0001 180 64H164C162.939 64.0001 161.922 64.4216 161.172 65.1717C160.422 65.9218 160 66.9392 160 68V72H152C149.74 72 148 70.2601 148 68V60H152C153.061 59.9999 154.078 59.5784 154.828 58.8283C155.578 58.0782 156 57.0608 156 56V40C156 38.9392 155.578 37.9218 154.828 37.1717C154.078 36.4216 153.061 36.0001 152 36H148V28C148 25.7399 149.74 24 152 24ZM140 44H148V52H140V44ZM196 44H204V52H196V44ZM168 72H176V80H168V72Z" fill="#279BE9"/>
</svg>
